<svg height="316.227766" viewBox="0 0 185.20833 185.20833" width="316.227766" xmlns="http://www.w3.org/2000/svg"><g transform="matrix(.26458333 0 0 .26458333 -13.229167 -13.229167)"><path d="m750 400c0 193.3-156.7 350-350 350s-350-156.7-350-350 156.7-350 350-350 350 156.7 350 350" fill="#e5c4ab"/><path d="m743 400c0 189.4-153.5 343-343 343-189.4 0-343-153.6-343-343s153.6-343 343-343 343 153.6 343 343" fill="#a84027"/><g fill="#fff"><path d="m75 394.3.2-13.3 35.2.6-.2 13.3c-.1 8.1-3.3 12.3-9.4 12.6-3.7-.2-6.2-2.3-7.5-6.4h-.2c-1.5 4.9-4.6 7.5-9.3 7.6-5.8-.6-8.7-5.4-8.8-14.4zm6-5.6-.1 5.9c-.3 4.2 1.2 6.2 4.5 6.2 3.3.2 4.9-1.8 4.9-6l.1-5.9zm15.2.3-.1 5.9c-.1 3.2 1.2 4.8 3.9 5 2.8-.1 4.2-1.7 4.3-4.9l.1-5.9z"/><path d="m75.3 418.7 35.1-3.3 2.2 23.5-5.9.5-1.5-15.9-8.1.8 1.4 14.8-5.9.6-1.4-14.8-9.3.9 1.5 16.5-5.9.5z"/><path d="m115.5 455.8-34.6 6.3-1.4-7.5 34.6-6.3z"/><path d="m120.8 478.1 1.9 7.2-22.8 6.1c-7.5 1.8-12.4-1-14.6-8.3-2.1-7.2.7-12 8.2-14.4l2 7.4c-4.2 1.1-5.9 3-5.2 5.7.7 2.5 3.1 3.2 7.3 2.4h.6z"/><path d="m128.3 501.4-33.1 11.9-2.6-7.2 33.1-11.9z"/><path d="m112.9 553.4-4.6-9.8 20.6-24.9-.3-.1-26.3 12.5-3-6.4 31.8-15.1 4.8 10.1-19.4 23.9.3.1 24.9-11.8 3 6.4z"/><path d="m142.3 576.2-3.7-5.7 4.9-3.2 7.8 12-14.8 9.6c-2-1.7-3.8-3.7-5.2-5.9-1.3-1.6-2.9-3.7-4.7-6.5-5.4-9.3-3.4-17.2 6-23.6 9.7-6 17.9-4.7 24.5 3.8 5.9 9.2 5.7 15.8-.7 19.9l-4.4-6.7c3.3-2.1 3.7-5.2 1.1-9.1-3.8-5.4-9.2-5.8-16.2-1.3-7 4.6-8.8 9.6-5.3 15.2 1 1.6 2.4 3.4 4.1 5.3.1.1.2.2.4.2z"/><path d="m187.5 597.1-26.1 23.6-5.1-5.6 26.1-23.6z"/><path d="m193 651.1-8-7.3 9.6-30.9h-.3l-19.6 21.5-5.2-4.7 23.7-26 8.3 7.6-8.9 29.5h.3l18.6-20.4 5.2 4.7z"/><path d="m238 652.8-5.9-4.2c1.8-3.1 1.3-5.6-1.6-7.6-3.2-1.9-5.6-1.8-7.3.4-1.7 2-.9 4.6 2.4 7.8.1.2.3.5.4.8 5.9 6.2 7.4 11.1 4.6 14.9-4.5 5.9-10.7 6.1-18.9.7-7.5-5.4-8.9-11.2-4.3-17.3l6.2 4.4c-2.4 3.4-2.1 6.3 1.1 8.7 3.8 2.5 6.6 2.6 8.4.3 1.3-1.9.5-4.5-2.6-7.9-.3-.4-.6-.8-.9-1.1-5.5-5.9-6.8-10.8-3.9-14.6 4.4-5.6 10.6-5.9 18.7-1 6 4.7 7.2 10 3.6 15.7z"/><path d="m245.6 652.7 2.8-5.2 25 13.7-2.8 5.2-9.2-5-14.1 25.7-6.7-3.7 14.1-25.7z"/><path d="m286.8 666.9-14.2 32.2-7-3.1 14.2-32.2z"/><path d="m290.9 675.3 1.9-5.6 27 9.2-1.9 5.6-9.9-3.4-9.5 27.7-7.2-2.5 9.5-27.7z"/><path d="m347.7 685.2 7.5 1.6-4.5 21.6c-2.2 8.5-8.1 11.9-17.7 10.1-9.8-2.3-13.9-7.8-12.3-16.4l4.5-21.6 7.5 1.6-3.9 18.8c-2.1 7.6-.3 11.8 5.3 12.6 5.3 1.5 8.5-1.6 9.8-9.4z"/><path d="m360.1 693.4.5-5.9 28.5 2.4-.5 5.9-10.4-.9-2.5 29.2-7.6-.7 2.5-29.2z"/><path d="m395.4 725.2-.8-35.2 23.6-.5.1 5.9-16 .4.2 8.2 14.8-.3.1 5.9-14.8.3.2 9.3 16.6-.4.1 5.9z"/><path d="m466.7 718.6c-10.9 2-17.6-2.7-20.2-14.1-2.2-11.7 2.1-18.9 12.8-21.5 10.6-1.8 17.3 3.1 20.2 14.7 1.9 11.5-2.3 18.5-12.8 20.9zm-6.3-30.2c-6 1.2-8 6.1-6.1 14.5 1.6 8.5 5.4 12 11.4 10.7 5.7-1.2 7.7-5.9 6-14.3-1.8-8.4-5.6-12.1-11.3-10.9z"/><path d="m500.8 709.1-7 2.4-11.2-33.4 21.5-7.2 1.9 5.6-14.4 4.8 2.7 7.9 13.5-4.5 1.9 5.6-13.5 4.5z"/><path d="m526.8 667.6-2.8-5.2 25.2-13.5 2.8 5.2-9.2 4.9 13.8 25.8-6.7 3.6-13.8-25.8z"/><path d="m573.7 675.1-19.9-29 19.5-13.3 3.3 4.9-13.2 9 4.6 6.8 12.2-8.4 3.3 4.9-12.2 8.4 5.3 7.7 13.7-9.4 3.3 4.9z"/><path d="m608.5 618-6 5.2c-2.9-3-6.1-3.2-9.5-.5-3 2.9-1.9 7.7 3.4 14.1 5.7 6.2 10.1 7.9 13.4 5.3 3.2-2.9 3.5-6.1.8-9.5l6-5.2c4.7 6.2 3.5 12.4-3.5 18.6-7.4 6-15 4.7-22.8-3.9-7.6-9.2-8-17-1-23.6 7.3-6 13.7-6.1 19.2-.5z"/><path d="m636.3 623.3-5 5.5-26.1-23.7 5-5.5 10.3 9.3 9-9.9-10.3-9.3 5.1-5.6 26.1 23.7-5 5.5-11.4-10.4-9.1 10z"/><path d="m676.1 572.3-6.2 8.9-31.9-5.5v.3l23.9 16.6-4 5.8-28.9-20.1 6.4-9.2 30.4 4.9v-.3l-22.6-15.7 4-5.8z"/><path d="m689.6 548.6c-5.3 9.7-13.2 12-23.7 6.9-10.5-5.7-13.4-13.5-8.7-23.5 5.3-9.4 13.3-11.6 24.1-6.5 10.3 5.7 13 13.4 8.3 23.1zm-27.4-14.1c-2.8 5.4-.3 10 7.4 13.9 7.6 4.1 12.8 3.4 15.4-2.1 2.7-5.2.2-9.7-7.3-13.6-7.7-4.1-12.8-3.4-15.5 1.8z"/><path d="m709 501.8-7.9 21.2-33-12.3 2.6-7 27.5 10.2 5.3-14.3z"/><path d="m716.2 477.2c-2.9 10.7-10 14.7-21.4 12.2-11.5-3.1-16.2-10-13.9-20.8 2.9-10.4 10.2-14.4 21.9-11.9 11.3 3.1 15.7 9.9 13.4 20.5zm-29.9-7.3c-1.4 5.9 2 9.8 10.5 11.8 8.4 2.2 13.2.3 14.5-5.7 1.4-5.7-2.1-9.5-10.3-11.5-8.5-2.1-13.4-.3-14.7 5.4z"/><path d="m711.2 425.4-.7 6.8-5.9-.6 1.5-14.2 17.6 1.9c.5 2.6.6 5.2.3 7.9 0 2-.1 4.7-.5 8-1.6 10.7-8.1 15.5-19.5 14.6-11.3-1.5-16.9-7.6-16.6-18.4 1.1-10.8 5.5-15.9 13.1-15.1l-.8 7.9c-3.9-.4-6.1 1.7-6.6 6.4-.4 6.6 3.5 10.3 11.8 11.2s12.9-2 13.7-8.5c.2-1.9.2-4.1.1-6.7 0-.1 0-.3-.2-.4z"/><path d="m725.1 397.6-11.4.2-23.6 12.4-.2-8.9 16-7.5-16.3-7.1-.1-7.6 24 11.4 11.4-.2z"/></g><path d="m667.8 400c0 147.9-119.9 267.8-267.8 267.8s-267.8-119.9-267.8-267.8 119.9-267.8 267.8-267.8 267.8 119.9 267.8 267.8" fill="#e5c4ab"/><path d="m663.1 400c0 145.3-117.8 263.1-263.1 263.1s-263.1-117.8-263.1-263.1 117.8-263.1 263.1-263.1 263.1 117.8 263.1 263.1" fill="#005f31"/><path d="m472.7 188.7c-5.1-.2-8.8.8-11.2 1.8 5.8-5.6 9.3-10.2 10-11 2.3-.5 6.3-2.3 8.7-8.5 3.9-10.5 2.1-17.3 2.1-17.3s-9.1 3.9-12.3 12.3c-2.1 5.4-1.5 9.5-.9 11.7-.9 1.2-3.6 4.5-8.5 8.9 1.2-2.4 2.2-6.1 2.3-11.5.2-11.2-2.5-15.1-2.5-15.1s-7.5 5-7.5 16.5c0 8.7 2 12.7 3 14.1-3.3 2.7-7.3 5.6-12 8.5 1.6-2.5 3.4-6.7 4-13 1.2-12.7-3.6-16.5-3.6-16.5s-7.8 5.9-8 17.4c-.1 8.3 2.2 12.7 3.5 14.6-4.5 2.6-9.5 5.1-14.2 7.1 2-2.6 4.2-6.9 4.2-13.3 0-12.3-3.2-15.8-3.2-15.8s-8.5 5.9-8.5 17.6c0 7.7 1.7 11.7 2.9 13.6-7.5 3.1-13.2 5.1-13.2 5.1l.7 4.6s5.9-1.7 14.1-5.1c.6 1.7 3.1 6.9 11 10.4 9.6 4.3 17.4.4 17.4.4s-4.4-6.2-12.6-10.3c-4.5-2.2-8-2.8-10.4-2.8 4.1-1.9 8.5-4.1 12.9-6.6.1 0 .1-.1.2-.1 1.2 2 4.7 6.4 14.2 8.8 10.3 2.7 15.7-.5 15.7-.5s-2.2-7-13-9.8c-5.6-1.5-9.6-1.7-12.3-1.4 4.5-3 8.5-6.3 12-9.4 1.7 1.3 6.6 4.6 14.3 4.6 9.6 0 15.1-6.9 15.1-6.9s-5-2.7-14.4-3.1" fill="#fff"/><path d="m530.5 234.9s-23.9 7.3-50 11.2c-31 4.6-65.3 4-65.3 4l-6.6-34.3s-1-11.5-8.6-11.5-8.6 11.5-8.6 11.5l-6.6 34.3s-34.3.6-65.3-4c-26-3.9-50-11.2-50-11.2s-.2 17.1 13.6 30.1c12.5 12 24.8 12.2 24.8 12.2s-1 15.7 14 24.9c9.8 6 21.4 2.9 21.4 2.9s3 13.4 17.9 15.7 20.5-3.5 20.5-3.5l-7 31.8h50.4l-7-31.8s5.6 5.8 20.5 3.5 17.9-15.7 17.9-15.7 11.6 3.1 21.4-2.9c15-9.2 14-24.9 14-24.9s12.3-.2 24.8-12.2c14-13.1 13.8-30.1 13.8-30.1" fill="#fff"/><path d="m558.1 459.9c-30.5 0-158.1-6.7-158.1-6.7s-127.6 6.7-158.1 6.7c-39.4 0-55.7-7-55.7-7s10.1 22.3 27.2 29.8c14.3 6.3 19.2 8.3 66.3 16.6s94.5 11.9 94.5 11.9l-9.3 43.4 35.1 7.6 35.1-7.6-9.3-43.4s47.4-3.6 94.5-11.9 52-10.3 66.3-16.6c17.1-7.6 27.2-29.8 27.2-29.8s-16.2 7-55.7 7" fill="#009148"/><path d="m532.3 404.5c-75.9 1-132.3 2.3-132.3 2.3s-56.4-1.3-132.3-2.3c-50.4-.7-64.6-3-64.6-3s8.5 13 18.6 22.2c11.9 10.9 34.1 21.5 77.2 30.2 43.1 8.6 76.2 11.3 76.2 11.3l-8.6 39.1 33.5 6.6 33.5-6.6-8.6-39.1s33.1-2.7 76.2-11.3 65.3-19.2 77.2-30.2c10.1-9.2 18.6-22.2 18.6-22.2s-14.3 2.3-64.6 3" fill="#30b683"/><path d="m516.3 353.1c-34.5.8-116.3 1.6-116.3 1.6s-81.8-.8-116.3-1.6c-30.5-.7-42.4-2-58.7-4.6 0 0 23.2 43.8 78.2 59 51 14.1 72.6 12.6 72.6 12.6l-8 37.8 32.2 3.9 32.2-3.9-8-37.8s21.6 1.5 72.6-12.6c55-15.2 78.2-59 78.2-59-16.2 2.6-28.2 4-58.7 4.6" fill="#96dabf"/><path d="m486.3 300.5c-1.7 1.7-3.8 3.3-6.2 4.8-7.7 4.8-16.3 4.6-20.9 4-2.1 4.8-7.5 13.2-19.8 15.2-6.9 1.1-12 .6-15.8-.4 1.9 8.8 6.3 28.8 6.3 28.8h-59.7s4.4-20.1 6.3-28.8c-3.7 1-8.9 1.5-15.8.4-12.4-1.9-17.8-10.3-19.8-15.2-4.6.6-13.2.8-20.9-4-2.4-1.5-4.5-3.1-6.2-4.8-49.2-3.7-67.9-10-67.9-10s26.2 61 88.8 76.9c24.8 6.3 42.4 4.6 42.4 4.6l-8 33.8 30.8 1 30.8-1-8-33.8s17.6 1.7 42.4-4.6c62.6-15.9 88.8-76.9 88.8-76.9s-18.5 6.3-67.6 10" fill="#d2f3ea"/><path d="m479.3 633c-6.2-2.2-10.9-4.7-13.1-6.2-2.2-1.6-4.4-5.6-6.8-5.6s-3.7-3.1-5.3-4.4c-1.6-1.2-3.7-.3-4.7-1.2-.9-.9-.9-4.7-5-6.5-4-1.9-5.6-1.2-7.5-2.2-1.9-.9-2.8-4-5.3-4.4-2.5-.3-4.7-.3-8.1-1.2s-3.7-5.6-7.5-5.6c-3.7 0-10.9-.3-10.9-.3v-21.5h2.2l-7.5-7.5-7.5 7.5h2.2v21.5s-7.1.3-10.9.3c-3.7 0-4 4.7-7.5 5.6-3.4.9-5.6.9-8.1 1.2s-3.4 3.4-5.3 4.4c-1.9.9-3.4.3-7.5 2.2-4 1.9-4 5.6-5 6.5-.9.9-3.1 0-4.7 1.2s-2.8 4.4-5.3 4.4-4.7 4-6.8 5.6c-2.2 1.6-6.8 4-13.1 6.2-6.2 2.2-26.1 2.8-26.1 2.8h210.9c.4 0-19.5-.6-25.8-2.8" fill="#00a64f"/><path d="m368.5 609.6v21h-2.7v-14.8h-5v-2.1c3.5.2 5.4-1.2 5.7-4.1z" fill="#fff"/><path d="m381.4 625.6h2.6c.3 2.3 1.5 3.4 3.6 3.4 2.7.1 4.4-2.5 5-7.8h-.1c-.9 1.6-2.4 2.4-4.8 2.4-4.2-.2-6.4-2.5-6.5-6.8.2-4.7 2.5-7.1 6.8-7.2 4.7.1 7.2 3.3 7.3 9.7-.3 7.6-2.9 11.5-7.7 11.7-3.9-.1-5.9-1.9-6.2-5.4m6.7-4.3c2.6-.2 3.9-1.7 4-4.8-.1-2.9-1.5-4.4-4.2-4.4-2.6.2-3.9 1.7-4.1 4.7 0 3 1.4 4.5 4.3 4.5" fill="#fff"/><path d="m417.4 625.5h-3.1v5.1h-2.6v-5.1h-9.2v-2.6l9.6-13.3h2.2v13.6h3.1zm-5.9-11.8-6.6 9.6h6.8v-9.6z" fill="#fff"/><path d="m439.2 620.5c-.2 6.9-2.6 10.4-7.2 10.5-4.7-.1-7.1-3.6-7.2-10.5.2-7.1 2.6-10.8 7.2-10.8 4.5.1 6.9 3.7 7.2 10.8m-2.8 0c0-5.6-1.5-8.4-4.4-8.4s-4.3 2.8-4.3 8.4 1.4 8.4 4.3 8.4c2.9-.1 4.4-2.9 4.4-8.4" fill="#fff"/><path d="m173.2 204.4c-3.7-3.7-7.7-8.5-9.8-11.2-2.1-2.6-4-6.3-6.3-6.5-2.3-.1-4.7 3.7-5.6 4.7-.7.7-2.2 1-3 1.3-.3.1-.5.7-.6.7-.4 3.1 1.4 2.9 2.9 3.2s3.7 3.7 5.4 7.3-2.2 4-3.6 7.7 1.7 4.8 3.4 6.6c1.8 1.8 3.3 2.3 3.4 1.9s2.3-3.3 3.9-4.7c1.5-1.4 2.9.3 4.1 2.8s-1.5 7.6-2.3 10.6-1.9 3.7-.6 4.5c1.4.8 4.5 1.7 6.6 1.7s2.6-1.5 2.6-2.9.8-2.9 1.4-6.9 2.8-9.4 2.8-14.1c0-4.5-1-3-4.7-6.7zm32.2-12.4c-2.2-2.2-3-6.2-6.4-3.9s-7.1 6.9-9.4 5.5-6.7-3.5-6.7-6.5 1.6-5.6 2.1-7.5 2-2.8.8-5.4-4.1-3.9-5.8-2.7-1.4 5.7-3.7 4.3-2.5-2.5-2.5-3.8-2.2-5.6-4.9-4-6.7 4.5-8.3 7c0 0-.6 1.6 0 2.5s5.2 6.7 7.9 10.5c2.7 3.9 6.3 9.3 10 12.7 3.7 3.5 7.6 6.8 10.7 6.8s10.2-6.5 11.9-8.4c2-1.9 6.5-4.9 4.3-7.1z" fill="#fff"/><path d="m248.9 119.6c4.3-4.3 10.5-10 12.3-11.1s4-1.6 3.5-3.9c-.5-2.2-3-4.4-6.1-3s-9.2 7.1-9.2 7.1-1.8-8.6-7.7-7.2c-6 1.4-8.6 6.5-8.6 6.5s-.4 2.2 1.9 2.6c2.4.4 2.4 1.7 2.5 2.9s-.5 2.4 1 2.6.9-1 2.7-.3c0 0 .5 1.2-.1 2.1-.7.9-8.7 8-11.6 10.3s-4 3.4-3.7 5.5c.2 1.9 1.6 5.2 5.4 2.8 3.8-2.6 13.4-12.6 17.7-16.9zm3.2 32c-1.4.1-3.4 3.5-4.4 3.1-.8-.3-1.8-1.5-1.8-1.5-1.7-1.4-2.7 1.2-3.1 4.8-.5 3.6 2.5 7.5 4.7 8.1s2.7-2.4 3.9-3.6c1.3-1.2 1.7-3.2 1.8-6 .1-3 .3-5-1.1-4.9zm26.6-17.1c-1.7-1.5-3.8-2.2-5.5-1.9-1.7.4-2 1.3-3.7 1.9s-2.9-.7-4.1 1.2c0 0 .6 2.9 2.4 4.3s4.4 2.8 5.3 3.9c.9 1 1.2 2.4 1.9 2.1s3.8-3.5 4.3-4.3c.6-.9 1.1-5.7-.6-7.2zm-17.5 4.6s.7-.4 1.5-1.5.2-2.5.2-5.4c.1-3 .3-6 .6-9.4.2-3.4-1-5.9-5.4-5.2-4.4.6-4.9 2.8-5.4 4-.4 1.2-6.7 8.3-8.4 9.1-1.8.7-3.3.1-3.3.1-4.9.9-1.8 7.1.7 9.8s6.7 7 8.1 6.7 1.4-1.8 3.8-1.9 2.7 3 4.7 5.6c2.2 2.7.7 3.9 0 4.4-.5.3-1.3.7-3.1.4-1.8-.4-1 1.9-1 1.9s3 1.3 4.8 1.8c1.8.6 3.8.5 6.8.6 3.1.1 3-1.7 3.2-6.5.2-4.9-2.4-7.1-5.5-10.4-3-3.5-2.3-4.1-2.3-4.1zm-7.2-7.1c-.9 1.5-.5 3.6-2.1 4.2-1.5.5-3.7.1-2.3-2.1 1.5-2.2 2.5-3.4 3.1-4.2.5-.8-.1-1.3 1.5-1.2 0 0 .7 1.9-.2 3.3z" fill="#fff"/><path d="m340.9 108.8c-1.4-.3-.9-2.2 1.5-3.8s3.3-2.8 2.9-4.4c-.3-1.7-1-2.2-2.3-2.7s-2.6-.9-2.5-2.9 1.7-4.2 2.3-5.3c.7-1.1 1.9-3.8 1.5-6.6s-2.3-5.1-6.1-3.3-5 4.4-7.5 5.8c-1.6.9-3.9 2-5.8 3.4-1 .8-1.8 2.9.8 4.2s2.6 2.4 3.9 2.6 2.4-.8 2.7 1.1c.3 1.8-.3 3.8-2.2 4.8-1.8.9-4.3 1-4.3 3s4.1 2.5 4.2 5.1-.4 3.1-2.2 4.8c-1.8 1.8-4 2.6-3.6 5.7s3.2 6.9 5.9 6.5c2.8-.4 3.5-3.6 6-5.6s9.7-5.7 9.5-9.4c.1-3.7-3.3-2.8-4.7-3zm37.4-.1c-2.7-.7-4.7 1-7.9 2s-3.8.2-3.9-1 4-2.7 4.7-4.2.3-3.3-2.4-4.2c-2.7-.8-2.7.7-4.8 1.6s-.8-2.7-.8-2.7 2.8-.1 5.5-2 2.2-2.8 3.1-5.9c.9-3.2 3.5-5.7 4.8-10.9 1.3-5.3.3-5.2-1.3-7.5s-4.2-2.8-7.9-1.7c-3.7 1.2-12.9 6.7-15.5 7.6-2.5.9-5.5.1-5.5.1-2.2.7-.9 4.8-.8 6.5.2 1.6.2 4.3 1.4 5.8 1.3 1.5.6 2.7.1 4.7s.8 3.1 2.4 4.5 2.3 1.9 3.3 1.7c.9-.3 1.8-1.7 2.9.2 1.1 1.8-.1 1.4-2.3 2.3-2.2.8-2.3 1.2-2.3 3.7s4.1 1.1 5 2.6-2.8 2.5-6.3 3.7c-3.4 1.2-4.6 1.7-3.5 4.7.9 2.6 2.9 4.1 5 3.8s7-3.4 12.5-5.3 6.7-1.2 11.8-1.1 4.3-1.9 4.8-4.2c.8-2.5.6-4.1-2.1-4.8zm-15.3-28.1c1.2-1 2.6-1.7 3.3-.8.8.8-.1 2.9-.8 3.4-.8.5-2 1.5-3 .2-1-1.4.5-2.8.5-2.8zm-9 4.9c1.3-1.3 2.3-2.5 3.2-.9 0 0 .3.9-.6 2.1-.5.6-1.1 1.3-1.7 1.4s-2.2-1.3-.9-2.6zm3.2 8.5c-.9.9-2.4 2-2.9.7s0-2.4 1.3-2.7c1.3-.2 1.8-1 2.5.4-.1 0-.2.8-.9 1.6zm4.5-3.2c0-.6 1.1-1.4 1.1-1.4 1.4-1.6 3.1-.3 2.7.3-.4.7-1 2.5-2.2 2.6s-1.6-.9-1.6-1.5z" fill="#fff"/><path d="m461.7 84.8s5.1.6 8.5.3c3.4-.4 8.1-1.9 10.4-1 2.2.9 4.3 4.3 3.3 7-.9 2.7-3.6 2.9-4.9 3.6s-2 1.3-3.2 1.5-3.7-1-4.8.7c-1.1 1.8.3 2.6-.7 4.4s-5.5 7.5-2.6 8.1 7.7.2 10.4 1.2 4.7 2.5 4.9 5.7.1 5.7-4 5.6-11.2-5-21.7-6.1-15.3-1.2-18.2-.7c-3 .5-7.3 1.6-7.9-2.9-.6-4.4-.3-7.1 5.2-6.8s10.4.8 15.8-.7c5.5-1.6 7.2-7.2 6.2-8.8s-3.1-1.5-4.3-1.3c-1.3.2-1.7-1.7-.9-3.2.7-1.6-.6-2.1-.6-4.4s-.5-5.6 2.8-5.1c3.1.5 2.2 2.1 6.3 2.9z" fill="#fff"/><path d="m542.2 121.1s-2.5.9-2.1 3.7 1.7 4.6 3.6 5.2c1.8.6 4.8 1 3.7 2.2s-6.3 3.9-10 4.4-5.8 1.1-9.4 1.1-4.1 0-4.1 1.1 1 2 1.1 3 .4 3.5 8 3.5 12.5-1.2 14.7-2.1 3.8-2 3.8-2 2.2 5.2 2.8 9.7c.6 4.6.5 7.5.5 9s-1 2.1 1.7 4.6 6.2 5.9 10.4 5.9 5.3-3.5 5.3-3.5-7-5.9-9.4-13c-2.3-7-2.2-7.9-2.5-10.1-.2-2.2-2.5-8.5.9-8.8 3.3-.2 5.5.7 10 1.4 4.4.6 8 .1 7.3-3.1s-2.2-4.9-5.4-5.2c-3.2-.2-8-.4-8-.4s5.6-4.3 4.4-7.6c-1.2-3.6-2.3-2.3-4.3-3.7-1.1-.7-1.4-2.8-3.7-.9-2.3 2-4.1 5.4-5.8 7s-2.2 2.1-4.8.4c-2.5-1.5-5.6-3.6-8.7-1.8z" fill="#fff"/><path d="m628 181.1s-2.6 2.6-2.6 3.6 1.5 2.2 2.6 2.2c1.2 0 2.5-3.4 4.3-5.2s8.1-9.7 9.4-9.1 3.1 1.8 2.1 3.5-11.5 11.3-12.2 11.9c-.6.6-.4 1.7.5 2.2 1 .5 5 3.8 5.5 4.3s1.4.7 1.8-.1 0-1.9-1.1-1.8-1.4-.6-1.4-.6 2.2-1.1 1-1.5c-1.3-.4-1.7 0-3-.3s-.8-2.1.8-3.2c1.7-1.1 8.6-9.5 9.7-9.1 1.2.4 1.1 1.7 0 2.9s-2.5 3.4-3.3 4.1c-.7.7-1 1.7-.6 2 .3.3 1.6.7 1.6 1.4 0 .6-1.7 1.7 0 1.9s4.4-.6 3.3-2.2c-1.2-1.6-2.7-1.6-2.7-1.6s-.8-2 1.5-2.7 2.1.4 2.9-.2c.7-.6.1-3.5 2-3.4s0 3.5 2.2 3.3 2.7-2.4 4.8-1.5c2 1 3.3 4.9.8 5.2-2.4.3-2.9-.2-4.2 1-1.4 1.2-1.7 2.9-3.3 3.8-1.6 1-6.4.5-7.5 2s0 5 1.6 5 .6-3.3 2.1-3.7 1.5.1 2.5 0c1.1-.1.8-1.6 2-1.5s2.7.3 3.9-.2 1.3-3.5 3.2-3.4 3.1 1.4 4.8 1.7 2.9.2 2.9 2.9c0 2.6-1.1 3.9-3.9 3.8-2.9-.1-5.4.3-8.5 2.1s-5.1 2.9-2.4 3.9c2.6 1.1 3.1 3.3 3.5 5.4s-2.4 6.1-4.9 6c-2.4-.1-4.8-2.7-6.9-4.8-2.1-2-3.3-3.6-7.9-3.6-4.7 0-7.7.4-6.3 1.9s3.5.8 4.5 3.4c1.1 2.5.7 6.3-.5 6.8-1.3.4-3.6-.1-5.6-1.8s-3.1-3-5.4-2.3c-2.3.6-3.5 3.4-7.3 5.3s-7 .6-9.9-1.9c-3-2.5-3.4-3.1-2.5-4.3.8-1.3 1.1-1.8 1.1-3s-.1-2.6-.1-2.6 3.2 1.3 4.1 2.5 2.4 2.1 4.5 1.8 5.3-1.6 3.7-3.2-7-5.3-8.2-6.7c-1.3-1.4-1.6-3 .6-4.5 2.2-1.6 3.1-2.7 5-.6s3.6 3.8 5.1 4.8 2.1 1.5 4 .5c1.9-.9 4.4-1.7 2.2-2.7-2.2-1.1-3.8-1-4.9-2.5-1.1-1.6 2.5-5.2 5.8-4.3 3.3.8 6.2 4.1 7.6 4.9 1.4.7 4 .8 5.1 3 1.1 2.1 2.6 4.2 4.4 4.7 1.8.4 3.8.5 1.8-1.6s-9.3-7.9-11.9-9.9-5.9-4.1-9.2-4-6.1 1-8.1-1c-2-1.9-.3-3.3 1.8-5.5s2.4-3.3 5.2-3.4c2.7-.4 3.5.1 6.5-.2z" fill="#fff"/><path d="m318.7 638.5c-6.2-2.3-13.7-2.8-13.7-.9 0 1.2 6.3.9 10.7 4.3 4.3 3.3 5.3 8.4 5.3 8.4h7.2c.1 0 .3-8.2-9.5-11.8m16 .9c-.8 0-1.4.6-1.4 1.4v9.9c0 .8.6 1.4 1.4 1.4s1.4-.6 1.4-1.4v-9.9c0-.7-.6-1.4-1.4-1.4m9.6 0c-.8 0-1.4.6-1.4 1.4v9.9c0 .8.6 1.4 1.4 1.4s1.4-.6 1.4-1.4v-9.9c.1-.7-.6-1.4-1.4-1.4m-4.8-1.9c-.7 0-1.3.6-1.3 1.3v14c0 .7.6 1.3 1.3 1.3s1.3-.6 1.3-1.3v-14c0-.7-.6-1.3-1.3-1.3m65.3 14.7c.8 0 1.4-.6 1.4-1.4v-9.9c0-.8-.6-1.4-1.4-1.4s-1.4.6-1.4 1.4v9.9c-.1.7.6 1.4 1.4 1.4m-9.7 0c.8 0 1.4-.6 1.4-1.4v-9.9c0-.8-.6-1.4-1.4-1.4s-1.4.6-1.4 1.4v9.9c0 .7.6 1.4 1.4 1.4m4.8 1.9c.7 0 1.3-.6 1.3-1.3v-14c0-.7-.6-1.3-1.3-1.3s-1.3.6-1.3 1.3v14c0 .7.6 1.3 1.3 1.3m65.3-14.7c-.8 0-1.4.6-1.4 1.4v9.9c0 .8.6 1.4 1.4 1.4s1.4-.6 1.4-1.4v-9.9c0-.7-.6-1.4-1.4-1.4m-4.8-1.9c-.7 0-1.3.6-1.3 1.3v14c0 .7.6 1.3 1.3 1.3s1.3-.6 1.3-1.3v-14c0-.7-.6-1.3-1.3-1.3m-4.9 1.9c-.8 0-1.4.6-1.4 1.4v9.9c0 .8.6 1.4 1.4 1.4s1.4-.6 1.4-1.4v-9.9c.1-.7-.6-1.4-1.4-1.4m-8.7 1.9c-8-6.3-16.6-5.5-22.4-4.7-17.2 2.4-17.8 19.6-17.8 19.6l-14.2-.1s1.2-16.4-14.8-18.9c-15.4-2.5-20.3.3-25.8 6.2-2.8 3-4.3 10.5-3 11.3 1.1.8 1.7-.8 1.7-1 1.1-3.8 5.2-14.1 18.6-12.8 16.4 1.6 15.9 19.1 15.9 19.1l23.7 1.4s.6-24 21.3-20.9c17 2.5 14 17.7 14 17.7l8.7-.9s1.5-10.2-5.9-16m28.1-1.6c-4.3 3.1-5.9 6.7-6.8 10.6-.5 2.3.2 2.9.9 2.8.4 0 .9-.9 1.1-1.6.7-2 1.9-5.2 6.2-7.6 5.9-3.2 13.7-1.6 13.7-1.6v-6.1c-4.9.2-10.8.4-15.1 3.5" fill="#00a64f"/></g></svg>